<svg xmlns="http://www.w3.org/2000/svg" width="500" height="500" viewBox="0 0 500 500">
  <path fill="#333333" d="M 40.000 40.000 L 395.479 40.000 L 395.479 460.000 L 40.000 460.000 Z M 50.000 50.000 L 50.000 450.000 L 385.479 450.000 L 385.479 50.000 Z" />
  <path fill="#cccccc" fill-rule="evenodd" d="M 50.000 50.000 L 385.479 50.000 L 385.479 450.000 L 50.000 450.000 Z M 108.638 66.605 a 10.786 10.788 0 1 0 21.573 0 a 10.786 10.788 0 1 0 -21.573 0 Z M 134.036 101.750 a 10.786 10.788 0 1 0 21.573 0 a 10.786 10.788 0 1 0 -21.573 0 Z M 352.068 64.596 a 10.786 10.788 0 1 0 21.573 0 a 10.786 10.788 0 1 0 -21.573 0 Z M 305.159 133.262 a 10.786 10.788 0 1 0 21.573 0 a 10.786 10.788 0 1 0 -21.573 0 Z M 164.466 134.766 a 10.786 10.788 0 1 0 21.573 0 a 10.786 10.788 0 1 0 -21.573 0 Z M 91.048 135.071 a 10.786 10.788 0 1 0 21.573 0 a 10.786 10.788 0 1 0 -21.573 0 Z M 56.263 168.525 a 10.786 10.788 0 1 0 21.573 0 a 10.786 10.788 0 1 0 -21.573 0 Z M 139.144 167.996 a 10.786 10.788 0 1 0 21.573 0 a 10.786 10.788 0 1 0 -21.573 0 Z M 223.235 133.721 a 10.786 10.788 0 1 0 21.573 0 a 10.786 10.788 0 1 0 -21.573 0 Z M 192.823 168.257 a 10.786 10.788 0 1 0 21.573 0 a 10.786 10.788 0 1 0 -21.573 0 Z M 266.533 166.711 a 10.786 10.788 0 1 0 21.573 0 a 10.786 10.788 0 1 0 -21.573 0 Z M 305.192 167.226 a 10.786 10.788 0 1 0 21.573 0 a 10.786 10.788 0 1 0 -21.573 0 Z M 244.884 200.731 a 10.786 10.788 0 1 0 21.573 0 a 10.786 10.788 0 1 0 -21.573 0 Z M 140.761 200.731 a 10.786 10.788 0 1 0 21.573 0 a 10.786 10.788 0 1 0 -21.573 0 Z M 84.577 234.751 a 10.786 10.788 0 1 0 21.573 0 a 10.786 10.788 0 1 0 -21.573 0 Z M 250.038 233.720 a 10.786 10.788 0 1 0 21.573 0 a 10.786 10.788 0 1 0 -21.573 0 Z M 316.532 267.225 a 10.786 10.788 0 1 0 21.573 0 a 10.786 10.788 0 1 0 -21.573 0 Z M 199.008 267.225 a 10.786 10.788 0 1 0 21.573 0 a 10.786 10.788 0 1 0 -21.573 0 Z M 121.174 267.225 a 10.786 10.788 0 1 0 21.573 0 a 10.786 10.788 0 1 0 -21.573 0 Z M 92.309 301.245 a 10.786 10.788 0 1 0 21.573 0 a 10.786 10.788 0 1 0 -21.573 0 Z M 56.227 301.245 a 10.786 10.788 0 1 0 21.573 0 a 10.786 10.788 0 1 0 -21.573 0 Z M 139.730 301.245 a 10.786 10.788 0 1 0 21.573 0 a 10.786 10.788 0 1 0 -21.573 0 Z M 244.884 301.245 a 10.786 10.788 0 1 0 21.573 0 a 10.786 10.788 0 1 0 -21.573 0 Z M 284.059 299.699 a 10.786 10.788 0 1 0 21.573 0 a 10.786 10.788 0 1 0 -21.573 0 Z M 352.099 299.699 a 10.786 10.788 0 1 0 21.573 0 a 10.786 10.788 0 1 0 -21.573 0 Z M 212.410 333.203 a 10.786 10.788 0 1 0 21.573 0 a 10.786 10.788 0 1 0 -21.573 0 Z M 121.174 366.708 a 10.786 10.788 0 1 0 21.573 0 a 10.786 10.788 0 1 0 -21.573 0 Z M 228.905 366.708 a 10.786 10.788 0 1 0 21.573 0 a 10.786 10.788 0 1 0 -21.573 0 Z M 295.399 366.708 a 10.786 10.788 0 1 0 21.573 0 a 10.786 10.788 0 1 0 -21.573 0 Z M 353.645 366.708 a 10.786 10.788 0 1 0 21.573 0 a 10.786 10.788 0 1 0 -21.573 0 Z M 353.645 400.213 a 10.786 10.788 0 1 0 21.573 0 a 10.786 10.788 0 1 0 -21.573 0 Z M 245.399 401.244 a 10.786 10.788 0 1 0 21.573 0 a 10.786 10.788 0 1 0 -21.573 0 Z M 121.689 401.759 a 10.786 10.788 0 1 0 21.573 0 a 10.786 10.788 0 1 0 -21.573 0 Z M 55.711 401.759 a 10.786 10.788 0 1 0 21.573 0 a 10.786 10.788 0 1 0 -21.573 0 Z M 98.494 434.748 a 10.786 10.788 0 1 0 21.573 0 a 10.786 10.788 0 1 0 -21.573 0 Z M 164.988 434.748 a 10.786 10.788 0 1 0 21.573 0 a 10.786 10.788 0 1 0 -21.573 0 Z M 327.872 435.264 a 10.786 10.788 0 1 0 21.573 0 a 10.786 10.788 0 1 0 -21.573 0 Z M 305.027 100.384 a 10.786 10.788 0 1 0 21.573 0 a 10.786 10.788 0 1 0 -21.573 0 Z M 192.518 66.642 a 10.786 10.788 0 1 0 21.573 0 a 10.786 10.788 0 1 0 -21.573 0 Z M 74.239 101.718 a 10.786 10.788 0 1 0 21.573 0 a 10.786 10.788 0 1 0 -21.573 0 Z" />
  <path fill="#333333" d="M 221.749 278.750 L 385.479 278.750 L 385.479 288.750 L 221.749 288.750 Z M 185.609 179.750 L 222.310 179.750 L 222.310 189.750 L 185.609 189.750 Z M 310.748 179.750 L 345.618 179.750 L 345.618 189.750 L 310.748 189.750 Z M 83.270 179.250 L 131.792 179.250 L 131.792 189.250 L 83.270 189.250 Z M 253.884 178.500 L 275.021 178.500 L 275.021 188.500 L 253.884 188.500 Z M 275.021 211.500 L 317.119 211.500 L 317.119 221.500 L 275.021 221.500 Z M 309.003 145.000 L 324.745 145.000 L 324.745 155.000 L 309.003 155.000 Z M 361.881 145.000 L 383.773 145.000 L 383.773 155.000 L 361.881 155.000 Z M 195.208 112.000 L 222.857 112.000 L 222.857 122.000 L 195.208 122.000 Z M 331.548 112.000 L 348.410 112.000 L 348.410 122.000 L 331.548 122.000 Z M 259.001 146.000 L 280.677 146.000 L 280.677 156.000 L 259.001 156.000 Z M 100.993 146.750 L 122.084 146.750 L 122.084 156.750 L 100.993 156.750 Z M 186.942 146.750 L 221.495 146.750 L 221.495 156.750 L 186.942 156.750 Z M 50.135 147.000 L 71.352 147.000 L 71.352 157.000 L 50.135 157.000 Z M 83.325 112.750 L 163.224 112.750 L 163.224 122.750 L 83.325 122.750 Z M 194.277 78.250 L 222.076 78.250 L 222.076 88.250 L 194.277 88.250 Z M 247.280 110.000 L 300.641 110.000 L 300.641 120.000 L 247.280 120.000 Z M 82.132 212.500 L 100.962 212.500 L 100.962 222.500 L 82.132 222.500 Z M 83.126 246.250 L 132.621 246.250 L 132.621 256.250 L 83.126 256.250 Z M 163.515 212.250 L 235.247 212.250 L 235.247 222.250 L 163.515 222.250 Z M 195.754 245.750 L 215.583 245.750 L 215.583 255.750 L 195.754 255.750 Z M 244.499 247.250 L 266.603 247.250 L 266.603 257.250 L 244.499 257.250 Z M 298.864 247.000 L 317.294 247.000 L 317.294 257.000 L 298.864 257.000 Z M 139.673 280.250 L 193.849 280.250 L 193.849 290.250 L 139.673 290.250 Z M 153.639 314.500 L 178.551 314.500 L 178.551 324.500 L 153.639 324.500 Z M 82.793 345.500 L 153.639 345.500 L 153.639 355.500 L 82.793 355.500 Z M 186.934 346.500 L 243.527 346.500 L 243.527 356.500 L 186.934 356.500 Z M 307.283 346.500 L 327.758 346.500 L 327.758 356.500 L 307.283 356.500 Z M 230.276 380.500 L 327.758 380.500 L 327.758 390.500 L 230.276 390.500 Z M 129.814 381.250 L 197.224 381.250 L 197.224 391.250 L 129.814 391.250 Z M 82.887 381.000 L 100.121 381.000 L 100.121 391.000 L 82.887 391.000 Z M 363.950 380.750 L 384.416 380.750 L 384.416 390.750 L 363.950 390.750 Z M 292.964 415.250 L 326.975 415.250 L 326.975 425.250 L 292.964 425.250 Z M 196.351 415.000 L 265.737 415.000 L 265.737 425.000 L 196.351 425.000 Z M 50.000 414.750 L 70.635 414.750 L 70.635 424.750 L 50.000 424.750 Z M 312.250 283.675 L 322.250 283.675 L 322.250 311.399 L 312.250 311.399 Z M 340.500 184.719 L 350.500 184.719 L 350.500 283.675 L 340.500 283.675 Z M 126.750 184.131 L 136.750 184.131 L 136.750 218.649 L 126.750 218.649 Z M 270.000 183.571 L 280.000 183.571 L 280.000 216.510 L 270.000 216.510 Z M 158.250 73.846 L 168.250 73.846 L 168.250 117.683 L 158.250 117.683 Z M 242.250 73.016 L 252.250 73.016 L 252.250 115.119 L 242.250 115.119 Z M 307.500 71.580 L 317.500 71.580 L 317.500 83.955 L 307.500 83.955 Z M 341.250 50.000 L 351.250 50.000 L 351.250 82.819 L 341.250 82.819 Z M 273.250 50.454 L 283.250 50.454 L 283.250 83.502 L 273.250 83.502 Z M 96.000 51.133 L 106.000 51.133 L 106.000 67.381 L 96.000 67.381 Z M 158.500 217.216 L 168.500 217.216 L 168.500 252.192 L 158.500 252.192 Z M 78.500 285.072 L 88.500 285.072 L 88.500 319.422 L 78.500 319.422 Z M 148.750 319.502 L 158.750 319.502 L 158.750 350.458 L 148.750 350.458 Z M 200.250 317.321 L 210.250 317.321 L 210.250 351.557 L 200.250 351.557 Z M 322.750 351.584 L 332.750 351.584 L 332.750 385.568 L 322.750 385.568 Z M 191.250 419.966 L 201.250 419.966 L 201.250 450.000 L 191.250 450.000 Z M 352.250 418.968 L 362.250 418.968 L 362.250 449.857 L 352.250 449.857 Z" />
  <ellipse fill="#00ff00" cx="70.000" cy="430.000" rx="10" ry="10" />
  <ellipse fill="#ff0000" cx="365.479" cy="70.000" rx="10" ry="10" />
  <ellipse fill="#0000ff" cx="85.000" cy="415.000" rx="8" ry="8" />
</svg>