<svg xmlns="http://www.w3.org/2000/svg" width="500" height="500" viewBox="0 0 500 500">
  <path shape-rendering="crispEdges" fill="#333333" d="M 40.0000 40.0000 L 395.4787 40.0000 L 395.4787 460.0000 L 40.0000 460.0000 Z M 50.0000 50.0000 L 50.0000 450.0000 L 385.4787 450.0000 L 385.4787 50.0000 Z" />
  <path shape-rendering="crispEdges" fill="#cccccc" fill-rule="evenodd" d="M 50.0000 50.0000 L 385.4787 50.0000 L 385.4787 450.0000 L 50.0000 450.0000 Z M 108.6376 66.6047 a 10.7865 10.7878 0 1 0 21.5730 0 a 10.7865 10.7878 0 1 0 -21.5730 0 Z M 134.0362 101.7498 a 10.7865 10.7878 0 1 0 21.5730 0 a 10.7865 10.7878 0 1 0 -21.5730 0 Z M 352.0685 64.5959 a 10.7865 10.7878 0 1 0 21.5730 0 a 10.7865 10.7878 0 1 0 -21.5730 0 Z M 305.1593 133.2615 a 10.7865 10.7878 0 1 0 21.5730 0 a 10.7865 10.7878 0 1 0 -21.5730 0 Z M 164.4657 134.7656 a 10.7865 10.7878 0 1 0 21.5730 0 a 10.7865 10.7878 0 1 0 -21.5730 0 Z M 91.0483 135.0708 a 10.7865 10.7878 0 1 0 21.5730 0 a 10.7865 10.7878 0 1 0 -21.5730 0 Z M 56.2633 168.5250 a 10.7865 10.7878 0 1 0 21.5730 0 a 10.7865 10.7878 0 1 0 -21.5730 0 Z M 139.1444 167.9956 a 10.7865 10.7878 0 1 0 21.5730 0 a 10.7865 10.7878 0 1 0 -21.5730 0 Z M 223.2346 133.7213 a 10.7865 10.7878 0 1 0 21.5730 0 a 10.7865 10.7878 0 1 0 -21.5730 0 Z M 192.8226 168.2569 a 10.7865 10.7878 0 1 0 21.5730 0 a 10.7865 10.7878 0 1 0 -21.5730 0 Z M 266.5330 166.7106 a 10.7865 10.7878 0 1 0 21.5730 0 a 10.7865 10.7878 0 1 0 -21.5730 0 Z M 305.1923 167.2260 a 10.7865 10.7878 0 1 0 21.5730 0 a 10.7865 10.7878 0 1 0 -21.5730 0 Z M 244.8838 200.7308 a 10.7865 10.7878 0 1 0 21.5730 0 a 10.7865 10.7878 0 1 0 -21.5730 0 Z M 140.7614 200.7308 a 10.7865 10.7878 0 1 0 21.5730 0 a 10.7865 10.7878 0 1 0 -21.5730 0 Z M 84.5766 234.7509 a 10.7865 10.7878 0 1 0 21.5730 0 a 10.7865 10.7878 0 1 0 -21.5730 0 Z M 250.0383 233.7200 a 10.7865 10.7878 0 1 0 21.5730 0 a 10.7865 10.7878 0 1 0 -21.5730 0 Z M 316.5323 267.2247 a 10.7865 10.7878 0 1 0 21.5730 0 a 10.7865 10.7878 0 1 0 -21.5730 0 Z M 199.0081 267.2247 a 10.7865 10.7878 0 1 0 21.5730 0 a 10.7865 10.7878 0 1 0 -21.5730 0 Z M 121.1740 267.2247 a 10.7865 10.7878 0 1 0 21.5730 0 a 10.7865 10.7878 0 1 0 -21.5730 0 Z M 92.3085 301.2449 a 10.7865 10.7878 0 1 0 21.5730 0 a 10.7865 10.7878 0 1 0 -21.5730 0 Z M 56.2265 301.2449 a 10.7865 10.7878 0 1 0 21.5730 0 a 10.7865 10.7878 0 1 0 -21.5730 0 Z M 139.7305 301.2449 a 10.7865 10.7878 0 1 0 21.5730 0 a 10.7865 10.7878 0 1 0 -21.5730 0 Z M 244.8838 301.2449 a 10.7865 10.7878 0 1 0 21.5730 0 a 10.7865 10.7878 0 1 0 -21.5730 0 Z M 284.0585 299.6986 a 10.7865 10.7878 0 1 0 21.5730 0 a 10.7865 10.7878 0 1 0 -21.5730 0 Z M 352.0989 299.6986 a 10.7865 10.7878 0 1 0 21.5730 0 a 10.7865 10.7878 0 1 0 -21.5730 0 Z M 212.4099 333.2033 a 10.7865 10.7878 0 1 0 21.5730 0 a 10.7865 10.7878 0 1 0 -21.5730 0 Z M 121.1740 366.7080 a 10.7865 10.7878 0 1 0 21.5730 0 a 10.7865 10.7878 0 1 0 -21.5730 0 Z M 228.9046 366.7080 a 10.7865 10.7878 0 1 0 21.5730 0 a 10.7865 10.7878 0 1 0 -21.5730 0 Z M 295.3986 366.7080 a 10.7865 10.7878 0 1 0 21.5730 0 a 10.7865 10.7878 0 1 0 -21.5730 0 Z M 353.6452 366.7080 a 10.7865 10.7878 0 1 0 21.5730 0 a 10.7865 10.7878 0 1 0 -21.5730 0 Z M 353.6452 400.2127 a 10.7865 10.7878 0 1 0 21.5730 0 a 10.7865 10.7878 0 1 0 -21.5730 0 Z M 245.3992 401.2436 a 10.7865 10.7878 0 1 0 21.5730 0 a 10.7865 10.7878 0 1 0 -21.5730 0 Z M 121.6895 401.7591 a 10.7865 10.7878 0 1 0 21.5730 0 a 10.7865 10.7878 0 1 0 -21.5730 0 Z M 55.7110 401.7591 a 10.7865 10.7878 0 1 0 21.5730 0 a 10.7865 10.7878 0 1 0 -21.5730 0 Z M 98.4940 434.7484 a 10.7865 10.7878 0 1 0 21.5730 0 a 10.7865 10.7878 0 1 0 -21.5730 0 Z M 164.9879 434.7484 a 10.7865 10.7878 0 1 0 21.5730 0 a 10.7865 10.7878 0 1 0 -21.5730 0 Z M 327.8724 435.2638 a 10.7865 10.7878 0 1 0 21.5730 0 a 10.7865 10.7878 0 1 0 -21.5730 0 Z M 305.0273 100.3842 a 10.7865 10.7878 0 1 0 21.5730 0 a 10.7865 10.7878 0 1 0 -21.5730 0 Z M 192.5179 66.6417 a 10.7865 10.7878 0 1 0 21.5730 0 a 10.7865 10.7878 0 1 0 -21.5730 0 Z M 74.2393 101.7180 a 10.7865 10.7878 0 1 0 21.5730 0 a 10.7865 10.7878 0 1 0 -21.5730 0 Z" />
  <path shape-rendering="crispEdges" fill="#333333" d="M 248.8845 178.5715 L 280.0213 178.5715 L 280.0213 211.5097 L 322.1187 211.5097 L 322.1187 221.5097 L 270.0213 221.5097 L 270.0213 188.5715 L 248.8845 188.5715 L 248.8845 178.5715 Z M 78.2702 179.1313 L 136.7922 179.1313 L 136.7922 223.6489 L 126.7922 223.6489 L 126.7922 189.1313 L 78.2702 189.1313 L 78.2702 179.1313 Z M 315.7477 179.7189 L 340.6184 179.7189 L 340.6184 189.7189 L 315.7477 189.7189 L 315.7477 179.7189 Z M 190.6091 179.8215 L 217.3096 179.8215 L 217.3096 189.8215 L 190.6091 189.8215 L 190.6091 179.8215 Z M 340.6184 189.7189 L 350.6184 189.7189 L 350.6184 278.6748 L 385.9787 278.6748 L 385.9787 288.6748 L 322.1440 288.6748 L 322.1440 316.3987 L 312.1440 316.3987 L 312.1440 288.6748 L 216.7493 288.6748 L 216.7493 278.6748 L 340.6184 278.6748 L 340.6184 189.7189 Z M 158.5145 212.2164 L 240.2466 212.2164 L 240.2466 222.2164 L 168.5145 222.2164 L 168.5145 247.1922 L 158.5145 247.1922 L 158.5145 212.2164 Z M 77.1315 212.4277 L 105.9617 212.4277 L 105.9617 222.4277 L 77.1315 222.4277 L 77.1315 212.4277 Z M 200.7543 245.7984 L 210.5834 245.7984 L 210.5834 255.7984 L 200.7543 255.7984 L 200.7543 245.7984 Z M 78.1264 246.3551 L 137.6206 246.3551 L 137.6206 256.3551 L 78.1264 256.3551 L 78.1264 246.3551 Z M 293.8643 246.9453 L 322.2940 246.9453 L 322.2940 256.9453 L 293.8643 256.9453 L 293.8643 246.9453 Z M 239.4990 247.1525 L 271.6029 247.1525 L 271.6029 257.1526 L 239.4990 257.1526 L 239.4990 247.1525 Z M 78.4454 280.0722 L 88.4454 280.0722 L 88.4454 324.4218 L 78.4454 324.4218 L 78.4454 280.0722 Z M 144.6731 280.3073 L 188.8492 280.3073 L 188.8492 290.3073 L 144.6731 290.3073 L 144.6731 280.3073 Z M 148.6389 314.5022 L 173.5514 314.5022 L 173.5514 324.5022 L 158.6389 324.5022 L 158.6389 355.4580 L 87.7934 355.4580 L 87.7934 345.4580 L 148.6389 345.4580 L 148.6389 314.5022 Z M 200.2387 322.3208 L 210.2387 322.3208 L 210.2387 346.5569 L 248.5274 346.5569 L 248.5274 356.5569 L 181.9343 356.5569 L 181.9343 346.5569 L 200.2387 346.5569 L 200.2387 322.3208 Z M 302.2833 346.5837 L 332.7578 346.5837 L 332.7578 390.5684 L 235.2755 390.5684 L 235.2755 380.5684 L 322.7578 380.5684 L 322.7578 356.5837 L 302.2833 356.5837 L 302.2833 346.5837 Z M 358.9496 380.7400 L 385.9787 380.7400 L 385.9787 390.7400 L 358.9496 390.7400 L 358.9496 380.7400 Z M 87.8872 380.9879 L 95.1210 380.9879 L 95.1210 390.9879 L 87.8872 390.9879 L 87.8872 380.9879 Z M 134.8144 381.1915 L 192.2239 381.1915 L 192.2239 391.1915 L 134.8144 391.1915 L 134.8144 381.1915 Z" />
  <path shape-rendering="crispEdges" fill="#333333" d="M 366.8810 144.9379 L 378.7730 144.9379 L 378.7730 154.9379 L 366.8810 154.9379 Z" />
  <path shape-rendering="crispEdges" fill="#333333" d="M 314.0034 144.8879 L 319.7454 144.8879 L 319.7454 154.8879 L 314.0034 154.8879 Z" />
  <path shape-rendering="crispEdges" fill="#333333" d="M 326.5479 111.9172 L 353.4096 111.9172 L 353.4096 121.9172 L 326.5479 121.9172 Z" />
  <path shape-rendering="crispEdges" fill="#333333" d="M 264.0014 146.0750 L 275.6769 146.0750 L 275.6769 156.0750 L 264.0014 156.0750 Z" />
  <path shape-rendering="crispEdges" fill="#333333" d="M 191.9420 146.6559 L 216.4952 146.6559 L 216.4952 156.6559 L 191.9420 156.6559 Z" />
  <path shape-rendering="crispEdges" fill="#333333" d="M 105.9932 146.7018 L 117.0836 146.7018 L 117.0836 156.7018 L 105.9932 156.7018 Z" />
  <path shape-rendering="crispEdges" fill="#333333" d="M 55.1350 146.9245 L 66.3523 146.9245 L 66.3523 156.9245 L 55.1350 156.9245 Z" />
  <path shape-rendering="crispEdges" fill="#333333" d="M 158.2243 78.8461 L 168.2243 78.8461 L 168.2243 122.6831 L 78.3248 122.6831 L 78.3248 112.6831 L 158.2243 112.6831 Z" />
  <path shape-rendering="crispEdges" fill="#333333" d="M 189.2770 78.2099 L 227.0756 78.2099 L 227.0756 88.2099 L 189.2770 88.2099 Z" />
  <path shape-rendering="crispEdges" fill="#333333" d="M 190.2084 112.0677 L 227.8571 112.0677 L 227.8571 122.0677 L 190.2084 122.0677 Z" />
  <path shape-rendering="crispEdges" fill="#333333" d="M 273.3249 49.5000 L 283.3249 49.5000 L 283.3249 88.5016 L 273.3249 88.5016 L 273.3249 49.5000 Z M 242.2799 68.0162 L 252.2799 68.0162 L 252.2799 110.1193 L 305.6411 110.1193 L 305.6411 120.1193 L 242.2799 120.1193 L 242.2799 68.0162 Z" />
  <path shape-rendering="crispEdges" fill="#333333" d="M 307.4425 66.5801 L 317.4425 66.5801 L 317.4425 88.9547 L 307.4425 88.9547 Z" />
  <path shape-rendering="crispEdges" fill="#333333" d="M 341.2957 49.5000 L 351.2957 49.5000 L 351.2957 87.8186 L 341.2957 87.8186 Z" />
  <path shape-rendering="crispEdges" fill="#333333" d="M 96.0138 49.5000 L 106.0138 49.5000 L 106.0138 72.3812 L 96.0138 72.3812 Z" />
  <path shape-rendering="crispEdges" fill="#333333" d="M 297.9644 415.3679 L 321.9753 415.3679 L 321.9753 425.3679 L 297.9644 425.3679 Z" />
  <path shape-rendering="crispEdges" fill="#333333" d="M 191.3512 414.9664 L 260.7374 414.9664 L 260.7374 424.9664 L 201.3512 424.9664 L 201.3512 450.5000 L 191.3512 450.5000 L 191.3512 414.9664 Z" />
  <path shape-rendering="crispEdges" fill="#333333" d="M 55.0000 414.6313 L 65.6348 414.6313 L 65.6348 424.6313 L 55.0000 424.6313 Z" />
  <path shape-rendering="crispEdges" fill="#333333" d="M 352.2579 413.9684 L 362.2579 413.9684 L 362.2579 450.5000 L 352.2579 450.5000 Z" />
  <ellipse fill="#00ff00" cx="70.0000" cy="430.0000" rx="10" ry="10" />
  <ellipse fill="#ff0000" cx="365.4787" cy="70.0000" rx="10" ry="10" />
  <ellipse fill="#0000ff" cx="85.0000" cy="415.0000" rx="8" ry="8" />
</svg>