<?xml version="1.0" encoding="UTF-8" standalone="no"?>
<!DOCTYPE svg PUBLIC "-//W3C//DTD SVG 1.1//EN" "http://www.w3.org/Graphics/SVG/1.1/DTD/svg11.dtd">
<svg width="100%" height="100%" viewBox="0 0 500 500" version="1.1" xmlns="http://www.w3.org/2000/svg" xmlns:xlink="http://www.w3.org/1999/xlink" xml:space="preserve" xmlns:serif="http://www.serif.com/" style="fill-rule:evenodd;clip-rule:evenodd;stroke-linejoin:round;stroke-miterlimit:2;">
    <g transform="matrix(0.843214,0,0,1,6.27145,0)">
        <path d="M40,40L460,40L460,460L40,460L40,40ZM50,50L50,450L450,450L450,50L50,50Z" style="fill:rgb(51,51,51);fill-rule:nonzero;"/>
    </g>
    <path d="M50,50L385.479,50L385.479,450L50,450L50,50ZM108.638,66.605C108.638,72.523 113.507,77.394 119.425,77.394C125.342,77.394 130.211,72.523 130.211,66.605C130.211,60.687 125.342,55.816 119.425,55.816C113.507,55.816 108.638,60.687 108.638,66.605ZM134.036,101.75C134.036,107.668 138.905,112.539 144.823,112.539C150.74,112.539 155.609,107.668 155.609,101.75C155.609,95.832 150.74,90.961 144.823,90.961C138.905,90.961 134.036,95.832 134.036,101.75ZM352.068,64.596C352.068,70.514 356.937,75.385 362.854,75.385C368.772,75.385 373.641,70.514 373.641,64.596C373.641,58.678 368.772,53.807 362.854,53.807C356.937,53.807 352.068,58.678 352.068,64.596ZM305.159,133.262C305.159,139.18 310.028,144.051 315.946,144.051C321.863,144.051 326.732,139.18 326.732,133.262C326.732,127.344 321.863,122.473 315.946,122.473C310.028,122.473 305.159,127.344 305.159,133.262ZM164.466,134.766C164.466,140.684 169.335,145.555 175.253,145.555C181.17,145.555 186.039,140.684 186.039,134.766C186.039,128.848 181.17,123.977 175.253,123.977C169.335,123.977 164.466,128.848 164.466,134.766ZM91.048,135.071C91.048,140.989 95.917,145.86 101.835,145.86C107.752,145.86 112.621,140.989 112.621,135.071C112.621,129.153 107.752,124.282 101.835,124.282C95.917,124.282 91.048,129.153 91.048,135.071ZM56.263,168.525C56.263,174.443 61.132,179.314 67.05,179.314C72.967,179.314 77.836,174.443 77.836,168.525C77.836,162.607 72.967,157.736 67.05,157.736C61.132,157.736 56.263,162.607 56.263,168.525ZM139.144,167.996C139.144,173.914 144.013,178.785 149.931,178.785C155.848,178.785 160.717,173.914 160.717,167.996C160.717,162.078 155.848,157.207 149.931,157.207C144.013,157.207 139.144,162.078 139.144,167.996ZM223.235,133.721C223.235,139.639 228.104,144.51 234.022,144.51C239.939,144.51 244.808,139.639 244.808,133.721C244.808,127.803 239.939,122.932 234.022,122.932C228.104,122.932 223.235,127.803 223.235,133.721ZM192.823,168.257C192.823,174.175 197.692,179.046 203.61,179.046C209.527,179.046 214.396,174.175 214.396,168.257C214.396,162.339 209.527,157.468 203.61,157.468C197.692,157.468 192.823,162.339 192.823,168.257ZM266.533,166.711C266.533,172.629 271.402,177.5 277.32,177.5C283.237,177.5 288.106,172.629 288.106,166.711C288.106,160.793 283.237,155.922 277.32,155.922C271.402,155.922 266.533,160.793 266.533,166.711ZM305.192,167.226C305.192,173.144 310.061,178.015 315.979,178.015C321.896,178.015 326.765,173.144 326.765,167.226C326.765,161.308 321.896,156.437 315.979,156.437C310.061,156.437 305.192,161.308 305.192,167.226ZM244.884,200.731C244.884,206.649 249.753,211.52 255.671,211.52C261.588,211.52 266.457,206.649 266.457,200.731C266.457,194.813 261.588,189.942 255.671,189.942C249.753,189.942 244.884,194.813 244.884,200.731ZM140.761,200.731C140.761,206.649 145.63,211.52 151.548,211.52C157.465,211.52 162.334,206.649 162.334,200.731C162.334,194.813 157.465,189.942 151.548,189.942C145.63,189.942 140.761,194.813 140.761,200.731ZM84.577,234.751C84.577,240.669 89.446,245.54 95.364,245.54C101.281,245.54 106.15,240.669 106.15,234.751C106.15,228.833 101.281,223.962 95.364,223.962C89.446,223.962 84.577,228.833 84.577,234.751ZM250.038,233.72C250.038,239.638 254.907,244.509 260.825,244.509C266.742,244.509 271.611,239.638 271.611,233.72C271.611,227.802 266.742,222.931 260.825,222.931C254.907,222.931 250.038,227.802 250.038,233.72ZM316.532,267.225C316.532,273.143 321.401,278.014 327.318,278.014C333.236,278.014 338.105,273.143 338.105,267.225C338.105,261.307 333.236,256.436 327.318,256.436C321.401,256.436 316.532,261.307 316.532,267.225ZM199.008,267.225C199.008,273.143 203.877,278.014 209.795,278.014C215.712,278.014 220.581,273.143 220.581,267.225C220.581,261.307 215.712,256.436 209.795,256.436C203.877,256.436 199.008,261.307 199.008,267.225ZM121.174,267.225C121.174,273.143 126.043,278.014 131.961,278.014C137.878,278.014 142.747,273.143 142.747,267.225C142.747,261.307 137.878,256.436 131.961,256.436C126.043,256.436 121.174,261.307 121.174,267.225ZM92.309,301.245C92.309,307.163 97.178,312.034 103.096,312.034C109.013,312.034 113.882,307.163 113.882,301.245C113.882,295.327 109.013,290.456 103.096,290.456C97.178,290.456 92.309,295.327 92.309,301.245ZM56.227,301.245C56.227,307.163 61.096,312.034 67.013,312.034C72.931,312.034 77.8,307.163 77.8,301.245C77.8,295.327 72.931,290.456 67.013,290.456C61.096,290.456 56.227,295.327 56.227,301.245ZM139.73,301.245C139.73,307.163 144.599,312.034 150.517,312.034C156.434,312.034 161.303,307.163 161.303,301.245C161.303,295.327 156.434,290.456 150.517,290.456C144.599,290.456 139.73,295.327 139.73,301.245ZM244.884,301.245C244.884,307.163 249.753,312.034 255.671,312.034C261.588,312.034 266.457,307.163 266.457,301.245C266.457,295.327 261.588,290.456 255.671,290.456C249.753,290.456 244.884,295.327 244.884,301.245ZM284.059,299.699C284.059,305.617 288.928,310.488 294.846,310.488C300.763,310.488 305.632,305.617 305.632,299.699C305.632,293.781 300.763,288.91 294.846,288.91C288.928,288.91 284.059,293.781 284.059,299.699ZM352.099,299.699C352.099,305.617 356.968,310.488 362.886,310.488C368.803,310.488 373.672,305.617 373.672,299.699C373.672,293.781 368.803,288.91 362.886,288.91C356.968,288.91 352.099,293.781 352.099,299.699ZM212.41,333.203C212.41,339.121 217.279,343.992 223.197,343.992C229.114,343.992 233.983,339.121 233.983,333.203C233.983,327.285 229.114,322.414 223.197,322.414C217.279,322.414 212.41,327.285 212.41,333.203ZM121.174,366.708C121.174,372.626 126.043,377.497 131.961,377.497C137.878,377.497 142.747,372.626 142.747,366.708C142.747,360.79 137.878,355.919 131.961,355.919C126.043,355.919 121.174,360.79 121.174,366.708ZM228.905,366.708C228.905,372.626 233.774,377.497 239.692,377.497C245.609,377.497 250.478,372.626 250.478,366.708C250.478,360.79 245.609,355.919 239.692,355.919C233.774,355.919 228.905,360.79 228.905,366.708ZM295.399,366.708C295.399,372.626 300.268,377.497 306.186,377.497C312.103,377.497 316.972,372.626 316.972,366.708C316.972,360.79 312.103,355.919 306.186,355.919C300.268,355.919 295.399,360.79 295.399,366.708ZM353.645,366.708C353.645,372.626 358.514,377.497 364.431,377.497C370.349,377.497 375.218,372.626 375.218,366.708C375.218,360.79 370.349,355.919 364.431,355.919C358.514,355.919 353.645,360.79 353.645,366.708ZM353.645,400.213C353.645,406.131 358.514,411.002 364.431,411.002C370.349,411.002 375.218,406.131 375.218,400.213C375.218,394.295 370.349,389.424 364.431,389.424C358.514,389.424 353.645,394.295 353.645,400.213ZM245.399,401.244C245.399,407.162 250.268,412.033 256.185,412.033C262.103,412.033 266.972,407.162 266.972,401.244C266.972,395.326 262.103,390.455 256.185,390.455C250.268,390.455 245.399,395.326 245.399,401.244ZM121.689,401.759C121.689,407.677 126.558,412.548 132.476,412.548C138.393,412.548 143.262,407.677 143.262,401.759C143.262,395.841 138.393,390.97 132.476,390.97C126.558,390.97 121.689,395.841 121.689,401.759ZM55.711,401.759C55.711,407.677 60.58,412.548 66.498,412.548C72.415,412.548 77.284,407.677 77.284,401.759C77.284,395.841 72.415,390.97 66.497,390.97C60.58,390.97 55.711,395.841 55.711,401.759ZM98.494,434.748C98.494,440.666 103.363,445.537 109.281,445.537C115.198,445.537 120.067,440.666 120.067,434.748C120.067,428.83 115.198,423.959 109.281,423.959C103.363,423.959 98.494,428.83 98.494,434.748ZM164.988,434.748C164.988,440.666 169.857,445.537 175.774,445.537C181.692,445.537 186.561,440.666 186.561,434.748C186.561,428.83 181.692,423.959 175.774,423.959C169.857,423.959 164.988,428.83 164.988,434.748ZM327.872,435.264C327.872,441.182 332.741,446.053 338.659,446.053C344.576,446.053 349.445,441.182 349.445,435.264C349.445,429.346 344.576,424.475 338.659,424.475C332.741,424.475 327.872,429.346 327.872,435.264ZM305.027,100.384C305.027,106.302 309.896,111.173 315.813,111.173C321.731,111.173 326.6,106.302 326.6,100.384C326.6,94.466 321.731,89.595 315.813,89.595C309.896,89.595 305.027,94.466 305.027,100.384ZM192.518,66.642C192.518,72.56 197.387,77.431 203.305,77.431C209.222,77.431 214.091,72.56 214.091,66.642C214.091,60.724 209.222,55.853 203.305,55.853C197.387,55.853 192.518,60.724 192.518,66.642ZM74.239,101.718C74.239,107.636 79.108,112.507 85.026,112.507C90.943,112.507 95.812,107.636 95.812,101.718C95.812,95.8 90.943,90.929 85.026,90.929C79.108,90.929 74.239,95.8 74.239,101.718Z" style="fill:rgb(204,204,204);"/>
    <rect x="221.749" y="278.675" width="52.914" height="10" style="fill:rgb(51,51,51);fill-rule:nonzero;"/>
    <rect x="221.749" y="278.675" width="95.395" height="10" style="fill:rgb(51,51,51);fill-rule:nonzero;"/>
    <rect x="312.144" y="283.675" width="10" height="27.724" style="fill:rgb(51,51,51);fill-rule:nonzero;"/>
    <rect x="312.144" y="283.675" width="10" height="27.724" style="fill:rgb(51,51,51);fill-rule:nonzero;"/>
    <rect x="317.144" y="278.675" width="68.335" height="10" style="fill:rgb(51,51,51);fill-rule:nonzero;"/>
    <rect x="345.618" y="278.675" width="39.861" height="10" style="fill:rgb(51,51,51);fill-rule:nonzero;"/>
    <rect x="340.618" y="184.719" width="10" height="98.956" style="fill:rgb(51,51,51);fill-rule:nonzero;"/>
    <rect x="310.748" y="179.719" width="34.87" height="10" style="fill:rgb(51,51,51);fill-rule:nonzero;"/>
    <rect x="185.609" y="179.821" width="36.701" height="10" style="fill:rgb(51,51,51);fill-rule:nonzero;"/>
    <rect x="83.27" y="179.131" width="48.522" height="10" style="fill:rgb(51,51,51);fill-rule:nonzero;"/>
    <rect x="126.792" y="184.131" width="10" height="34.518" style="fill:rgb(51,51,51);fill-rule:nonzero;"/>
    <rect x="253.884" y="178.571" width="21.137" height="10" style="fill:rgb(51,51,51);fill-rule:nonzero;"/>
    <rect x="270.021" y="183.571" width="10" height="32.939" style="fill:rgb(51,51,51);fill-rule:nonzero;"/>
    <rect x="275.021" y="211.51" width="42.098" height="10" style="fill:rgb(51,51,51);fill-rule:nonzero;"/>
    <rect x="361.881" y="144.938" width="21.892" height="10" style="fill:rgb(51,51,51);fill-rule:nonzero;"/>
    <rect x="309.003" y="144.888" width="15.742" height="10" style="fill:rgb(51,51,51);fill-rule:nonzero;"/>
    <rect x="331.548" y="111.917" width="16.862" height="10" style="fill:rgb(51,51,51);fill-rule:nonzero;"/>
    <rect x="259.001" y="146.075" width="21.676" height="10" style="fill:rgb(51,51,51);fill-rule:nonzero;"/>
    <rect x="186.942" y="146.656" width="34.553" height="10" style="fill:rgb(51,51,51);fill-rule:nonzero;"/>
    <rect x="100.993" y="146.702" width="21.091" height="10" style="fill:rgb(51,51,51);fill-rule:nonzero;"/>
    <rect x="50.135" y="146.924" width="21.217" height="10" style="fill:rgb(51,51,51);fill-rule:nonzero;"/>
    <rect x="83.325" y="112.683" width="79.899" height="10" style="fill:rgb(51,51,51);fill-rule:nonzero;"/>
    <rect x="158.224" y="73.846" width="10" height="43.837" style="fill:rgb(51,51,51);fill-rule:nonzero;"/>
    <rect x="194.277" y="78.21" width="27.799" height="10" style="fill:rgb(51,51,51);fill-rule:nonzero;"/>
    <rect x="195.208" y="112.068" width="27.649" height="10" style="fill:rgb(51,51,51);fill-rule:nonzero;"/>
    <rect x="242.28" y="73.016" width="10" height="42.103" style="fill:rgb(51,51,51);fill-rule:nonzero;"/>
    <rect x="247.28" y="110.119" width="53.361" height="10" style="fill:rgb(51,51,51);fill-rule:nonzero;"/>
    <rect x="307.442" y="71.58" width="10" height="12.375" style="fill:rgb(51,51,51);fill-rule:nonzero;"/>
    <rect x="341.296" y="50" width="10" height="32.819" style="fill:rgb(51,51,51);fill-rule:nonzero;"/>
    <rect x="273.325" y="50.454" width="10" height="33.048" style="fill:rgb(51,51,51);fill-rule:nonzero;"/>
    <rect x="96.014" y="51.133" width="10" height="16.248" style="fill:rgb(51,51,51);fill-rule:nonzero;"/>
    <rect x="82.132" y="212.428" width="18.83" height="10" style="fill:rgb(51,51,51);fill-rule:nonzero;"/>
    <rect x="83.126" y="246.355" width="49.495" height="10" style="fill:rgb(51,51,51);fill-rule:nonzero;"/>
    <rect x="158.515" y="217.216" width="10" height="34.976" style="fill:rgb(51,51,51);fill-rule:nonzero;"/>
    <rect x="163.515" y="212.216" width="71.732" height="10" style="fill:rgb(51,51,51);fill-rule:nonzero;"/>
    <rect x="195.754" y="245.798" width="19.829" height="10" style="fill:rgb(51,51,51);fill-rule:nonzero;"/>
    <rect x="244.499" y="247.153" width="22.104" height="10" style="fill:rgb(51,51,51);fill-rule:nonzero;"/>
    <rect x="298.864" y="246.945" width="18.43" height="10" style="fill:rgb(51,51,51);fill-rule:nonzero;"/>
    <rect x="139.673" y="280.307" width="54.176" height="10" style="fill:rgb(51,51,51);fill-rule:nonzero;"/>
    <rect x="78.445" y="285.072" width="10" height="34.35" style="fill:rgb(51,51,51);fill-rule:nonzero;"/>
    <rect x="153.639" y="314.502" width="24.912" height="10" style="fill:rgb(51,51,51);fill-rule:nonzero;"/>
    <rect x="148.639" y="319.502" width="10" height="30.956" style="fill:rgb(51,51,51);fill-rule:nonzero;"/>
    <rect x="82.793" y="345.458" width="70.846" height="10" style="fill:rgb(51,51,51);fill-rule:nonzero;"/>
    <rect x="186.934" y="346.557" width="56.593" height="10" style="fill:rgb(51,51,51);fill-rule:nonzero;"/>
    <rect x="205.239" y="346.557" width="38.288" height="10" style="fill:rgb(51,51,51);fill-rule:nonzero;"/>
    <rect x="200.239" y="317.321" width="10" height="34.236" style="fill:rgb(51,51,51);fill-rule:nonzero;"/>
    <rect x="307.283" y="346.584" width="20.475" height="10" style="fill:rgb(51,51,51);fill-rule:nonzero;"/>
    <rect x="322.758" y="351.584" width="10" height="33.984" style="fill:rgb(51,51,51);fill-rule:nonzero;"/>
    <rect x="230.276" y="380.568" width="97.482" height="10" style="fill:rgb(51,51,51);fill-rule:nonzero;"/>
    <rect x="129.814" y="381.192" width="67.41" height="10" style="fill:rgb(51,51,51);fill-rule:nonzero;"/>
    <rect x="82.887" y="380.988" width="17.234" height="10" style="fill:rgb(51,51,51);fill-rule:nonzero;"/>
    <rect x="363.95" y="380.74" width="20.466" height="10" style="fill:rgb(51,51,51);fill-rule:nonzero;"/>
    <rect x="292.964" y="415.368" width="34.011" height="10" style="fill:rgb(51,51,51);fill-rule:nonzero;"/>
    <rect x="196.351" y="414.966" width="69.386" height="10" style="fill:rgb(51,51,51);fill-rule:nonzero;"/>
    <rect x="191.351" y="419.966" width="10" height="30.034" style="fill:rgb(51,51,51);fill-rule:nonzero;"/>
    <rect x="50" y="414.631" width="20.635" height="10" style="fill:rgb(51,51,51);fill-rule:nonzero;"/>
    <rect x="352.258" y="418.968" width="10" height="30.889" style="fill:rgb(51,51,51);fill-rule:nonzero;"/>
    <g transform="matrix(1,0,0,1,9.89856,7.33843)">
        <circle cx="70" cy="430" r="10" style="fill:rgb(0,255,0);"/>
    </g>
    <g transform="matrix(1,0,0,1,-0.0879733,26.1689)">
        <circle cx="365.479" cy="70" r="10" style="fill:rgb(255,0,0);"/>
    </g>
    <circle cx="85" cy="415" r="8" style="fill:rgb(0,0,255);"/>
</svg>
